<svg width="86" height="30" viewBox="0 0 86 30" fill="none" xmlns="http://www.w3.org/2000/svg">
<path d="M47.5 4.5C47.5 6.98528 45.4853 9 43 9C40.5147 9 38.5 6.98528 38.5 4.5C38.5 2.01472 40.5147 0 43 0C45.4853 0 47.5 2.01472 47.5 4.5Z" fill="black"/>
<path d="M46 15C46 16.6569 44.6569 18 43 18C41.3431 18 40 16.6569 40 15C40 13.3431 41.3431 12 43 12C44.6569 12 46 13.3431 46 15Z" fill="black"/>
<path d="M43 30C45.4853 30 47.5 27.9853 47.5 25.5C47.5 23.0147 45.4853 21 43 21C40.5147 21 38.5 23.0147 38.5 25.5C38.5 27.9853 40.5147 30 43 30Z" fill="black"/>
<path d="M58 15C58 17.4853 55.9853 19.5 53.5 19.5C51.0147 19.5 49 17.4853 49 15C49 12.5147 51.0147 10.5 53.5 10.5C55.9853 10.5 58 12.5147 58 15Z" fill="black"/>
<path d="M32.5 19.5C34.9853 19.5 37 17.4853 37 15C37 12.5147 34.9853 10.5 32.5 10.5C30.0147 10.5 28 12.5147 28 15C28 17.4853 30.0147 19.5 32.5 19.5Z" fill="black"/>
<path d="M86 15C86 17.2091 84.2091 19 82 19C79.7909 19 78 17.2091 78 15C78 12.7909 79.7909 11 82 11C84.2091 11 86 12.7909 86 15Z" fill="black"/>
<path d="M8 15C8 17.2091 6.20914 19 4 19C1.79086 19 0 17.2091 0 15C0 12.7909 1.79086 11 4 11C6.20914 11 8 12.7909 8 15Z" fill="black"/>
</svg>
