<svg id="Capa_1" enable-background="new 0 0 509.785 509.785" height="512" viewBox="0 0 509.785 509.785" width="512" xmlns="http://www.w3.org/2000/svg"><g><path d="m298.757 216.896c4.231-10.775 4.419-22.991 0-34.246l54.808-54.808 68.006-5.231-2.301-29.912-33.109 2.547 10.925-10.925-21.213-21.213-10.926 10.926 2.547-33.11-29.912-2.301-5.232 68.008-52.973 52.973c-2.93-1.785-6.075-3.246-9.378-4.361v-77.92l44.389-51.787-22.777-19.524-21.611 25.213v-15.452h-30v15.452l-21.611-25.213-22.777 19.523 44.388 51.787v77.92c-3.303 1.115-6.448 2.576-9.378 4.361l-52.973-52.973-5.232-68.008-29.912 2.301 2.547 33.11-10.926-10.926-21.213 21.213 10.925 10.925-33.109-2.547-2.301 29.912 68.006 5.231 54.808 54.808c-.275.7-.533 1.407-.775 2.123h-77.92l-51.787-44.389-19.523 22.777 25.213 21.611h-15.45v30h15.451l-25.213 21.611 19.523 22.777 51.787-44.389c86.606 0 77.805-.292 78.152.682-78.314 64.06-210.7 187.402-210.7 288.321h30c0-88.563 130.657-208.579 199.234-264.721 3.321 2.186 6.933 3.957 10.766 5.252v77.92l-44.389 51.787 22.777 19.523 21.612-25.212v15.451h30v-15.451l21.611 25.213 22.777-19.523-44.388-51.787v-77.92c3.303-1.115 6.448-2.576 9.378-4.361l52.973 52.973 5.232 68.008 29.912-2.301-2.547-33.11 10.926 10.926 21.213-21.213-10.925-10.925 33.109 2.547 2.301-29.912-68.006-5.231zm-43.757-.123c-9.374 0-17-7.626-17-17s7.626-17 17-17 17 7.626 17 17-7.626 17-17 17z"/><path d="m480.17 195.375 15.011-3.661-7.11-29.147-15.01 3.662 19.374-26.97-24.366-17.502-39.793 55.394-87.876 21.434 7.11 29.146 87.875-21.432 60.83 30.852 13.57-26.755z"/></g></svg>